<svg xmlns="http://www.w3.org/2000/svg" width="588.961" height="358.509" viewBox="0 0 588.961 358.509">
  <g id="Group_333" data-name="Group 333" transform="translate(-15579.787 -8140)">
    <path id="Path_1502" data-name="Path 1502" d="M195.707,266.01c-48.1,0-91.756-4.545-126.248-13.144C33.759,243.967,9.914,231.12.5,215.713c.054-29.379,2.9-53.971,8.708-75.183,6.783-24.807,17.529-65.1,32.851-81.73a138.825,138.825,0,0,1,28.76-23.647,183.16,183.16,0,0,1,38.948-17.96c27.838-9.274,62.09-14.421,101.8-15.3,30.112,8.247,50,19.336,59.107,32.957,21.523,32.185,32.9,172.732,36.8,223A761.406,761.406,0,0,1,195.707,266.01Zm132.27-11.528v-.007C323.785,203.672,298.464,28.8,282.5,16.659s-19.749-6.636-18.313-12.944,57.224,7.328,76.256,13.628a186,186,0,0,1,39.2,17.942,139.275,139.275,0,0,1,28.935,23.587c15.411,16.583,26.22,56.832,33.044,81.609,5.767,20.935,8.63,45.208,8.751,74.2-28.423,16.048-67.909,29.276-114.192,38.259-2.69.522-5.448,1.039-8.2,1.536Z" transform="translate(15718.374 8151.31)"/>
    <path id="Path_1503" data-name="Path 1503" d="M219.718,150.387c-60.3,0-116.71-7.989-158.85-22.5-19.048-6.56-34.634-14.364-45.074-22.567C5.789,97.463.5,89.243.5,81.553c0-15.4,24.283-30.858,66.624-42.408a481.928,481.928,0,0,1,61.818-12.119c-.1,3.464,1.644,5.308,1.637,9.1,8.564,14.018,28.45,27.537,60.925,35.63C222.882,79.579,251,85.905,309.552,86.376s90.9-1.948,116.623-8.064c-4.039,15.236-37.674,38.078-82.994,51.866S250.523,150.387,219.718,150.387Z" transform="translate(15579.287 8348.122)"/>
    <ellipse id="Ellipse_658" data-name="Ellipse 658" cx="16.787" cy="8.715" rx="16.787" ry="8.715" transform="translate(15943.812 8140)"/>
  </g>
</svg>
