<svg id="Layer_1" data-name="Layer 1" xmlns="http://www.w3.org/2000/svg" viewBox="0 0 128 112"><defs><style>.cls-1{fill:#848484;}</style></defs><path id="Icon_awesome-gift" data-name="Icon awesome-gift" class="cls-1" d="M8,112a8,8,0,0,0,8,8H56V80H8Zm64,8h40a8,8,0,0,0,8-8V80H72Zm48-80H109.47A21.8,21.8,0,0,0,90,8C79.6,8,72.87,13.32,64.25,25.07,55.62,13.32,48.9,8,38.5,8a22,22,0,0,0-22,22A21.51,21.51,0,0,0,19,40H8a8,8,0,0,0-8,8V68a4,4,0,0,0,4,4H124a4,4,0,0,0,4-4V48A8,8,0,0,0,120,40ZM38.47,40a10,10,0,0,1,0-20c5,0,8.65.82,21.53,20ZM90,40H68.47C81.32,20.87,84.9,20,90,20a10,10,0,0,1,0,20Z" transform="translate(0 -8)"/></svg>