<svg id="Layer_1" data-name="Layer 1" xmlns="http://www.w3.org/2000/svg" viewBox="0 0 128 128"><defs><style>.cls-1{fill:#fff;}</style></defs><g id="Group_333" data-name="Group 333"><path id="Path_1502" data-name="Path 1502" class="cls-1" d="M72.37,84.61a112.86,112.86,0,0,1-26.53-2.77C38.34,80,33.33,77.27,31.35,74a60.18,60.18,0,0,1,1.83-15.8c1.42-5.21,3.68-13.68,6.9-17.17a29.09,29.09,0,0,1,6-5,38.5,38.5,0,0,1,8.19-3.78A73.48,73.48,0,0,1,75.7,29.11C82,30.84,86.2,33.17,88.12,36c4.52,6.77,6.91,36.3,7.73,46.86A160.39,160.39,0,0,1,72.37,84.61Zm27.79-2.43h0c-.88-10.67-6.2-47.42-9.56-50s-4.15-1.39-3.84-2.72,12,1.54,16,2.86A39.12,39.12,0,0,1,111,36.13a29.22,29.22,0,0,1,6.08,4.95c3.23,3.49,5.5,11.94,6.94,17.15a59.9,59.9,0,0,1,1.84,15.59c-6,3.37-14.27,6.15-24,8l-1.72.32Z"/><path id="Path_1503" data-name="Path 1503" class="cls-1" d="M48.19,101.67c-12.67,0-24.53-1.68-33.38-4.73A33.27,33.27,0,0,1,5.34,92.2c-2.11-1.65-3.22-3.38-3.22-5,0-3.23,5.11-6.48,14-8.91a102.46,102.46,0,0,1,13-2.55c0,.73.35,1.12.35,1.92,1.79,2.94,6,5.78,12.8,7.48,6.59,1.65,12.5,3,24.8,3.08s19.1-.41,24.51-1.7c-.85,3.2-7.92,8-17.44,10.9A96.73,96.73,0,0,1,48.19,101.67Z"/><ellipse id="Ellipse_658" data-name="Ellipse 658" class="cls-1" cx="82.14" cy="28.17" rx="3.53" ry="1.83"/></g></svg>