<svg id="Layer_1" data-name="Layer 1" xmlns="http://www.w3.org/2000/svg" viewBox="0 0 128 128"><g id="noun_mask_1853373" data-name="noun mask 1853373"><g id="Group_661" data-name="Group 661"><path id="Path_1496" data-name="Path 1496" d="M123.4,46.15c-11.67-8.95-10.23-10.87-29.09-10.87H33.74c-10.55-.47-22.69,5.6-29.24,12C1.3,50.63-.62,51.59.18,55.1,2.9,66.77,12,86.9,23.51,91.06c11.35,4,21.42.64,29.57-7.67,9.43-9.11,12.46-9.11,21.73,0C83.12,91.7,93,95.05,104.38,91.06c11.67-4.16,20.78-24.29,23.33-36C128.67,51.59,127.23,49.67,123.4,46.15ZM19.68,59.74C31.34,53.5,43.81,57.82,49.24,69.8,37.58,76,25.11,71.88,19.68,59.74Zm59,10.06c5.59-12,17.9-16.3,29.72-10.06C102.78,71.88,90.47,76,78.65,69.8Z" style="fill:#fff;fill-rule:evenodd"/></g></g></svg>